# xmcd CD database file
#
# Track frame offsets:
#	150
#	19389
#	39890
#	60504
#	84281
#	113048
#	127649
#	145699
#	160276
#	185379
#	200545
#	221561
#
# Disc length: 3126 seconds
#
# Revision: 2
# Processed by: cddbd v1.5.1PL2 Copyright (c) Steve Scherf et al.
# Submitted via: CDex 1.51
#
DISCID=960c340c
DTITLE=Nils Landgren and Joe Sample - Creole Love Call
DYEAR=2006
DGENRE=Jazz
TTITLE0=Get out of my life woman
TTITLE1=(Sittin' on the) Dock of the bay
TTITLE2=Nightlife
TTITLE3=Soul Shadows
TTITLE4=The brightest smile in town
TTITLE5=Don't take your love to Hollywood
TTITLE6=One day I fly away
TTITLE7=With you in mind
TTITLE8=I can't get enough of you love
TTITLE9=Love the one you're with
TTITLE10=Same old story
TTITLE11=Creole love call
EXTD=YEAR: 2006
EXTT0=
EXTT1=
EXTT2=
EXTT3=
EXTT4=
EXTT5=
EXTT6=
EXTT7=
EXTT8=
EXTT9=
EXTT10=
EXTT11=
PLAYORDER=
